<svg width="92" height="91" viewBox="0 0 92 91" fill="none" xmlns="http://www.w3.org/2000/svg">
<path d="M85.3004 51.5554C85.1435 49.8645 84.9474 48.1863 84.4909 46.5489C84.1564 45.3015 83.7204 44.0836 83.1874 42.9077C82.3768 41.1561 81.3513 39.5128 80.1347 38.016C79.1825 36.8412 78.1093 35.7704 76.933 34.8215C75.101 33.3485 73.04 32.1874 70.8324 31.3847C69.6106 30.9274 68.3507 30.58 67.0675 30.3466C66.1296 30.1921 65.1837 30.0913 64.2345 30.0446C62.4119 29.9389 60.5832 30.0444 58.7848 30.3592C57.6484 30.5739 56.5334 30.8897 55.4529 31.3029C53.7977 31.8916 52.2179 32.6751 50.7468 33.6371C49.3087 34.5784 47.9774 35.6744 46.7765 36.9055C45.7031 38.0063 44.7501 39.2191 43.934 40.5232C42.9923 42.0147 42.2518 43.6246 41.7316 45.311C41.6626 45.5375 41.7316 45.6256 41.9622 45.6256C42.9557 45.6256 43.9492 45.6256 44.9427 45.6256C45.0148 45.636 45.0881 45.6176 45.1468 45.5744C45.2054 45.5311 45.2448 45.4665 45.2564 45.3944C45.4492 44.7589 45.7029 44.1437 46.0141 43.5573C46.6516 42.2416 47.4666 41.0201 48.4362 39.927C49.5968 38.5901 50.936 37.4204 52.4159 36.451C53.6236 35.6758 54.904 35.021 56.2388 34.4959C57.5592 33.9767 58.9395 33.6264 60.3472 33.453C61.2398 33.3414 62.1371 33.2203 63.0297 33.258C63.9787 33.2874 64.9252 33.3725 65.8643 33.5128C67.1957 33.7266 68.5044 34.0641 69.7735 34.521C71.1406 35.0267 72.4428 35.6936 73.6529 36.5076C74.9181 37.3533 76.0705 38.3576 77.082 39.4961C77.9186 40.4253 78.6548 41.4408 79.2782 42.5255C80.1932 44.0877 80.8855 45.7708 81.3347 47.5257C81.7524 49.1316 81.9912 50.7791 82.0469 52.4378C82.1063 53.8089 82.0581 55.1826 81.9026 56.5462C81.7471 57.7879 81.5076 59.0176 81.1857 60.2267C81.0775 60.6168 81.1089 60.6844 81.5261 60.686C82.3889 60.686 83.2517 60.686 84.1113 60.6939C84.3639 60.6939 84.4815 60.6246 84.5396 60.3636C84.7894 59.3523 84.9759 58.3263 85.098 57.2917C85.2173 56.0192 85.3992 54.7546 85.3757 53.4743C85.3569 52.8326 85.3569 52.1956 85.3004 51.5554Z" fill="white"/>
<path d="M19.0174 50.7797C18.8751 50.1678 18.5816 49.6015 18.164 49.1329C17.2997 48.1499 16.1467 47.7173 14.8886 47.5947C13.6171 47.4448 12.3284 47.5654 11.1065 47.9486C10.1105 48.2709 9.15715 48.7129 8.26717 49.2651C7.96128 49.457 7.9252 49.6567 8.09775 49.9729C8.40143 50.5161 8.67481 51.0759 8.91661 51.6496C9.04995 51.9751 9.15348 51.9437 9.38722 51.7659C10.6955 50.7735 12.1324 50.149 13.8172 50.2387C14.3396 50.252 14.844 50.4334 15.2557 50.7562C15.6651 51.0833 15.7639 51.5426 15.6432 52.0255C15.5396 52.4407 15.2055 52.6546 14.8055 52.7553C13.3858 53.1202 11.9034 53.1863 10.5135 53.7085C9.35741 54.1426 8.31737 54.6821 7.71813 55.8444C7.11889 57.0068 7.31184 58.7417 8.18874 59.7295C8.937 60.5662 9.89548 60.9013 10.9983 60.9768C12.8572 61.1042 14.4008 60.5442 15.5475 59.0327C15.6024 58.9603 15.6353 58.8581 15.7483 58.8958C15.8612 58.9336 15.8612 59.0327 15.8612 59.1255C15.8612 59.492 15.8847 59.86 15.8612 60.2265C15.8377 60.593 15.9632 60.6905 16.3036 60.6842C17.1522 60.6685 18.0009 60.6653 18.8496 60.6842C19.1633 60.6842 19.2198 60.5615 19.2182 60.291C19.2104 58.8518 19.2182 57.4142 19.2182 55.9766C19.2182 55.846 19.2182 55.7139 19.2182 55.5833C19.1272 53.9821 19.3923 52.3715 19.0174 50.7797ZM13.698 58.1582C13.3205 58.3092 12.9221 58.4009 12.5168 58.4303C11.9034 58.3784 11.4093 58.317 11.1253 57.7807C10.9746 57.4704 10.9331 57.1181 11.0074 56.7811C11.0817 56.4441 11.2676 56.1423 11.5348 55.9247C12.4069 55.2798 13.4423 55.1461 14.4666 54.9809C14.7349 54.9369 15.0094 54.9479 15.2729 54.8457C15.5051 54.756 15.6557 54.8457 15.6384 55.1193C15.5694 56.192 14.9561 57.5935 13.698 58.1582V58.1582Z" fill="white"/>
<path d="M56.7334 47.6478C55.8408 47.4905 54.9404 47.4338 54.0666 47.7122C53.1993 47.9792 52.4686 48.5721 52.0273 49.3669C51.9756 49.4581 51.9379 49.5682 51.8061 49.5494C51.6744 49.5305 51.6493 49.3921 51.6383 49.2804C51.6383 48.9281 51.6101 48.5742 51.6383 48.2234C51.6587 47.9246 51.5599 47.8349 51.265 47.8396C50.4032 47.8554 49.5415 47.8554 48.6797 47.8396C48.3456 47.8318 48.2201 47.9246 48.2217 48.2801C48.2374 50.2666 48.2217 52.2547 48.2217 54.2413C48.2217 56.242 48.2217 58.2411 48.2217 60.2418C48.2217 60.5564 48.3127 60.687 48.6468 60.6807C49.599 60.665 50.5528 60.6712 51.505 60.6807C51.7889 60.6807 51.8971 60.5832 51.8956 60.2906C51.8956 58.3166 51.8956 56.3427 51.8956 54.3687C51.883 53.861 51.9535 53.3546 52.1042 52.8697C52.716 51.0232 54.4933 50.1958 56.2408 51.0059C56.4557 51.105 56.4918 51.0279 56.5232 50.8753C56.7052 49.9819 56.873 49.0854 57.0628 48.2014C57.1162 47.8915 57.033 47.7012 56.7334 47.6478Z" fill="white"/>
<path d="M44.6609 47.8339C43.7605 47.8591 42.86 47.8622 41.9596 47.8339C41.5596 47.8198 41.4764 47.9692 41.4796 48.3325C41.4921 50.3065 41.4796 52.2789 41.4796 54.2513C41.4796 56.263 41.4796 58.2747 41.4796 60.2865C41.4796 60.601 41.5721 60.6923 41.8796 60.686C42.689 60.6655 43.4969 60.686 44.3064 60.6734C45.1158 60.6608 45.1189 60.848 45.1174 59.8602C45.1111 56.0056 45.1142 52.1515 45.1268 48.2979C45.1299 47.9362 45.0248 47.8245 44.6609 47.8339Z" fill="white"/>
<path d="M78.5537 51.6646C78.5669 50.7801 78.3096 49.9128 77.8164 49.1794C76.8187 47.7496 75.2077 47.2385 73.6139 47.4304C72.9545 47.505 72.3174 47.7142 71.7417 48.045C71.166 48.3759 70.6639 48.8213 70.2663 49.354C70.1204 49.5427 69.9965 49.5333 69.8694 49.354C69.7219 49.1432 69.6168 48.8821 69.4302 48.7248C68.0921 47.5263 66.5328 47.1519 64.7963 47.5719C64.3179 47.6835 63.8667 47.8899 63.4691 48.179C63.1029 48.4514 62.777 48.7744 62.5013 49.1385C62.462 49.1888 62.4244 49.2518 62.3444 49.2234C62.2644 49.1951 62.2738 49.1212 62.2738 49.0662C62.2738 48.7657 62.2738 48.4653 62.2738 48.1633C62.2738 47.8613 62.1828 47.7198 61.8393 47.7308C61.0298 47.7559 60.2204 47.7386 59.4109 47.7386C58.4948 47.7386 58.4697 47.7591 58.4697 48.6824V56.6868C58.4697 57.89 58.4697 59.0933 58.4697 60.295C58.4697 60.6096 58.5733 60.803 58.9121 60.803C59.9568 60.803 61.0016 60.803 62.0495 60.803C62.2063 60.803 62.2958 60.748 62.3083 60.586C62.3209 60.424 62.3397 60.2714 62.3397 60.1141C62.3397 58.0867 62.3303 56.0592 62.3554 54.0333C62.3679 52.9763 62.6142 52.0012 63.4111 51.2021C63.8597 50.7539 64.3947 50.6674 64.9312 50.702C65.2384 50.7058 65.5374 50.8023 65.7892 50.9788C66.4763 51.5183 66.6504 52.2843 66.663 53.0581C66.7022 55.4898 66.6818 57.9215 66.663 60.3548C66.663 60.6961 66.7556 60.8077 67.1054 60.7999C68.0183 60.7747 68.9329 60.7904 69.8474 60.7889C70.4169 60.7889 70.4106 60.7889 70.42 60.2242C70.4592 57.9907 70.3275 55.7556 70.4969 53.5237C70.5785 52.4573 70.8843 51.4994 71.8711 50.9363C73.0162 50.282 74.2476 50.8813 74.5378 51.9634C74.5723 52.0955 74.5535 52.2874 74.7574 52.3299C74.7684 52.4872 74.781 52.6445 74.792 52.8018C74.7339 52.8253 74.7276 52.8741 74.7276 52.9292C74.7276 55.4259 74.7276 57.9231 74.7276 60.4208C74.7276 60.7165 74.8453 60.7999 75.1277 60.7952C76.1081 60.781 77.0869 60.7763 78.0658 60.7952C78.4392 60.7952 78.5709 60.6772 78.5694 60.2981C78.5678 57.4182 78.5945 54.5414 78.5537 51.6646Z" fill="white"/>
<path d="M40.2853 41.983C39.7628 41.7271 39.2058 41.5491 38.6319 41.4545C37.4868 41.2972 36.3667 41.3271 35.2263 41.7534C33.736 42.3102 32.958 43.4143 32.4591 44.7937C32.1642 45.6069 32.1611 46.4767 32.2348 47.3355C32.2615 47.6501 32.1391 47.7696 31.8411 47.7649C31.3971 47.7649 30.9532 47.7649 30.5092 47.7649C29.4111 47.7649 28.3131 47.7649 27.215 47.7649C26.8887 47.7649 26.7365 47.6548 26.7585 47.3041C26.7836 46.9266 26.7287 46.5428 26.771 46.1685C26.8667 45.3128 27.2417 44.6349 28.0448 44.5075C28.5717 44.4021 29.1179 44.4568 29.6135 44.6648C30.0669 44.8692 30.2128 44.8032 30.3979 44.3203C30.6332 43.7037 30.9249 43.1123 31.1963 42.5146C31.3532 42.1544 31.2261 42.0758 30.9877 41.9704C30.2886 41.666 29.5486 41.4667 28.7915 41.379C27.768 41.2494 26.7286 41.3949 25.7796 41.8005C24.4541 42.3636 23.6446 43.4474 23.2242 44.8236C22.9858 45.5991 23.0187 46.3965 23.0015 47.1924C22.9889 47.7649 23.0015 47.7649 22.4415 47.7649C22.0509 47.7649 21.6571 47.7759 21.2665 47.7649C20.9528 47.7523 20.7959 47.8687 20.7959 48.1896C20.7959 48.91 20.7959 49.6288 20.7959 50.3476C20.7959 50.6244 20.9073 50.7691 21.2336 50.7408C21.6744 50.7031 22.1199 50.722 22.5638 50.7251C22.865 50.7251 22.9968 50.8682 22.9921 51.197C22.9513 54.2672 23.025 57.3312 22.9513 60.4109C22.9513 60.6075 22.9983 60.7664 23.2556 60.7648C24.3004 60.757 25.3451 60.7648 26.393 60.7538C26.4714 60.7538 26.622 60.8167 26.5954 60.6264C26.6575 60.4964 26.6788 60.3505 26.6565 60.208C26.6565 57.207 26.6565 54.2054 26.6565 51.2033C26.6565 51.0617 26.6785 50.9186 26.6895 50.777H31.8928C32.0073 50.777 32.1281 50.8132 32.2348 50.7424C32.2948 50.8875 32.3143 51.0463 32.2913 51.2017C32.2913 53.928 32.2913 56.6481 32.2913 59.3618C32.2913 59.766 32.3022 60.1718 32.3085 60.5761C32.2332 60.8907 32.4874 60.7633 32.5893 60.7648C33.5541 60.7743 34.5204 60.7522 35.4851 60.7743C35.871 60.7821 35.9667 60.6484 35.9651 60.2741C35.951 57.2699 35.9651 54.2657 35.951 51.2615C35.951 50.8745 36.0891 50.7644 36.4561 50.7739C37.2405 50.7959 38.0248 50.7849 38.8092 50.7817C39.2547 50.7817 39.3253 50.7031 39.3268 50.2517C39.3268 49.5989 39.3096 48.9446 39.3268 48.2918C39.341 47.9112 39.1825 47.7759 38.8233 47.7791C38.028 47.7869 37.2311 47.7665 36.4373 47.7869C36.0655 47.7964 35.94 47.6847 35.9447 47.2962C35.9447 46.7945 36.0436 46.2943 35.9761 45.791L36.0185 45.6006C36.1581 45.5786 36.1895 45.4544 36.2428 45.3568C36.5361 44.8158 36.9471 44.4902 37.5997 44.4855C38.0818 44.4773 38.5621 44.5463 39.0225 44.6899C39.2892 44.7749 39.4727 44.7544 39.5998 44.4336C39.8539 43.7871 40.1661 43.1627 40.4453 42.5241C40.5536 42.2929 40.53 42.0962 40.2853 41.983Z" fill="white"/>
</svg>
