<svg width="92" height="91" viewBox="0 0 92 91" fill="none" xmlns="http://www.w3.org/2000/svg">
<path d="M90.0154 56.7194H67.5764V31.3535H78.7232C80.71 31.3535 82.5679 32.337 83.685 33.9799L90.0154 43.2904V56.7194Z" stroke="white" stroke-width="3" stroke-linejoin="round"/>
<path d="M67.5754 56.7195V31.5C67.5754 28.1863 64.8891 25.5 61.5754 25.5H34.551C31.2373 25.5 28.551 28.1863 28.551 31.5V56.7195H67.5754Z" stroke="white" stroke-width="3" stroke-linejoin="round"/>
<path d="M39.7713 56.7188C42.196 56.7188 44.1616 58.6843 44.1616 61.109C44.1616 63.5337 42.196 65.4992 39.7713 65.4992C37.3467 65.4992 35.3811 63.5337 35.3811 61.109C35.3811 58.6843 37.3467 56.7188 39.7713 56.7188Z" stroke="white" stroke-width="3" stroke-linejoin="round"/>
<path d="M78.7967 56.7188C81.2214 56.7188 83.187 58.6843 83.187 61.109C83.187 63.5337 81.2214 65.4992 78.7967 65.4992C76.3721 65.4992 74.4065 63.5337 74.4065 61.109C74.4065 58.6843 76.3721 56.7188 78.7967 56.7188Z" stroke="white" stroke-width="3" stroke-linejoin="round"/>
<path d="M75.9201 38.1836H73.4299V47.9397H83.186V43.647L80.5971 40.4252C79.4583 39.008 77.7382 38.1836 75.9201 38.1836Z" stroke="white" stroke-width="3" stroke-linejoin="round"/>
<path d="M23.6736 49.891H14.8932H8.06389M37.3322 42.0861H1.23462M23.6736 34.2812H11.9663" stroke="#4197B4" stroke-width="3"/>
</svg>
