<svg width="21" height="26" viewBox="0 0 21 26" fill="none" xmlns="http://www.w3.org/2000/svg">
<circle cx="10.9468" cy="10.25" r="1" fill="#4197B4" stroke="#4197B4" stroke-width="2"/>
<path d="M19.6611 10.1071C19.6611 11.2119 19.145 12.6886 18.2398 14.3751C17.3506 16.0317 16.1531 17.77 14.9374 19.3635C13.7246 20.9533 12.5094 22.3786 11.5962 23.4076C11.2951 23.7468 11.0273 24.0424 10.8039 24.286C10.5805 24.0424 10.3127 23.7468 10.0117 23.4076C9.09842 22.3786 7.88322 20.9533 6.6704 19.3635C5.45477 17.77 4.25726 16.0317 3.36806 14.3751C2.46287 12.6886 1.94678 11.2119 1.94678 10.1071C1.94678 5.21548 5.91226 1.25 10.8039 1.25C15.6956 1.25 19.6611 5.21548 19.6611 10.1071Z" stroke="#4197B4" stroke-width="2"/>
</svg>
