<svg width="216" height="185" viewBox="0 0 216 185" fill="none" xmlns="http://www.w3.org/2000/svg">
<rect width="216" height="185" fill="#4197B4"/>
<g clip-path="url(#clip0_1915_7226)">
<path d="M45.9974 83.8225C45.3415 83.0716 43.4686 81.7588 41.5066 83.3497C40.2006 84.4734 40.1061 85.597 40.0116 85.9753C40.0116 86.3479 39.8226 87.4716 41.0398 88.8789C42.2569 90.2807 53.8561 103.386 53.8561 103.386C53.8561 103.386 64.7995 115.652 67.2283 118.177C69.657 120.702 74.9925 125.475 83.2237 125.759C88.926 125.948 88.926 125.853 89.5818 125.853H103.426C103.799 125.853 107.072 125.948 110.535 124.635C113.997 123.322 117.454 120.702 119.794 118.644C122.134 116.492 128.214 110.128 128.587 109.661C131.488 106.668 132.888 105.544 135.601 105.917C138.407 106.384 142.242 107.041 148.973 108.443C149.162 108.537 164.407 111.813 164.59 111.908C164.779 111.908 167.302 112.564 168.703 110.128C169.92 107.786 168.142 105.355 166.647 105.072C162.345 104.137 157.949 103.108 153.647 102.168C153.275 102.073 137.935 98.7024 134.378 98.7024C133.255 98.7024 130.637 98.6079 127.642 101.044C124.463 103.57 121.656 106.846 121.189 107.224C120.722 107.692 117.165 111.53 116.137 112.464C112.769 115.646 109.029 118.739 103.699 118.739H86.6751C85.9248 118.739 81.1562 118.739 78.5384 117.71C75.6372 116.586 73.7698 114.995 71.5245 112.47C69.2847 110.028 45.9974 83.8225 45.9974 83.8225Z" fill="white"/>
<path d="M48.5202 142.608C48.4257 140.266 47.303 138.303 45.2466 138.303C43.3792 138.303 41.9731 139.988 41.7841 142.608H48.5202ZM40.1057 143.259C40.1057 139.421 42.351 136.706 45.2466 136.706C48.4257 136.706 50.2987 139.421 50.2987 143.164V143.915H41.8786C42.0676 146.724 43.7516 148.221 45.7135 148.221C47.1141 148.221 48.0533 147.659 48.9871 146.819L50.0153 147.942C48.8926 149.066 47.5809 149.817 45.7135 149.817C42.6289 149.817 40.1001 147.292 40.1001 143.359V143.264L40.1057 143.259Z" fill="white"/>
<path d="M54.228 136.99H56.0065V139.799C56.7568 138.019 58.2519 136.806 60.3083 136.895V138.77H60.2138C57.874 138.77 56.0065 140.455 56.0065 143.637V149.628H54.228V136.99Z" fill="white"/>
<path d="M71.9019 142.608C71.9019 139.894 70.0289 138.208 68.1615 138.208C66.1996 138.208 64.61 139.799 64.61 142.608V142.703C64.61 145.417 66.1996 147.103 68.1615 147.103C70.1234 147.103 71.9019 145.417 71.9019 142.608ZM64.0431 150.379C65.2603 151.13 66.6609 151.597 68.067 151.597C70.4069 151.597 71.9019 150.379 71.9019 147.854V145.979C71.0571 147.381 69.751 148.599 67.7891 148.599C65.2659 148.599 62.8315 146.446 62.8315 142.703V142.608C62.8315 138.865 65.2659 136.712 67.7891 136.712C69.751 136.712 71.0627 137.836 71.9019 139.148V136.901H73.6804V147.759C73.6804 149.445 73.2136 150.752 72.2798 151.597C71.3461 152.532 69.94 152.999 68.1671 152.999C66.483 152.999 64.8935 152.532 63.3984 151.686L64.0543 150.374L64.0431 150.379Z" fill="white"/>
<path d="M87.0526 143.164C87.0526 140.355 85.3685 138.297 83.2177 138.297C81.0668 138.297 79.4772 140.355 79.4772 143.164V143.259C79.4772 146.068 81.1613 148.126 83.3121 148.126C85.463 148.126 87.147 145.973 87.147 143.259L87.0526 143.164ZM77.6987 143.164C77.6987 139.515 80.0386 136.706 83.3121 136.706C86.5857 136.706 88.8311 139.515 88.8311 143.164V143.259C88.8311 146.908 86.4912 149.717 83.2177 149.717C79.9441 149.717 77.6987 146.908 77.6987 143.259V143.164Z" fill="white"/>
<path d="M92.9493 136.99H94.6333V138.953C95.2891 137.735 96.3173 136.706 98.1848 136.706C99.8688 136.706 101.086 137.641 101.647 138.953C102.398 137.735 103.609 136.706 105.482 136.706C107.917 136.706 109.506 138.392 109.506 141.295V149.439H107.728V141.668C107.728 139.421 106.699 138.202 105.015 138.202C103.426 138.202 102.025 139.515 102.025 141.757V149.433H100.247V141.662C100.247 139.415 99.2185 138.197 97.5345 138.197C95.8505 138.197 94.5444 139.693 94.5444 141.751V149.333H92.8604V136.979H92.9548L92.9493 136.99Z" fill="white"/>
<path d="M122.784 143.164C122.784 140.355 121.1 138.297 118.949 138.297C116.798 138.297 115.209 140.355 115.209 143.164V143.259C115.209 146.068 116.893 148.126 119.044 148.126C121.194 148.126 122.878 145.973 122.878 143.259V143.164H122.784ZM113.43 143.164C113.43 139.515 115.77 136.706 119.044 136.706C122.317 136.706 124.563 139.515 124.563 143.164V143.259C124.563 146.908 122.223 149.717 118.949 149.717C115.676 149.717 113.43 146.908 113.43 143.259V143.164Z" fill="white"/>
<path d="M129.142 146.629V138.58H127.647V137.084H129.142V133.435H130.921V137.084H134.194V138.58H130.921V146.351C130.921 147.664 131.671 148.131 132.699 148.131C133.166 148.131 133.633 148.036 134.194 147.758V149.255C133.633 149.533 132.977 149.722 132.321 149.722C130.543 149.722 129.142 148.876 129.142 146.635" fill="white"/>
<path d="M138.307 149.533H140.085V136.99H138.307V149.533ZM138.212 134.37H140.174V132.312H138.212V134.37Z" fill="white"/>
<path d="M153.646 143.164C153.646 140.355 151.962 138.297 149.811 138.297C147.661 138.297 146.071 140.355 146.071 143.164V143.259C146.071 146.068 147.755 148.126 149.906 148.126C152.057 148.126 153.741 145.973 153.741 143.259V143.164H153.646ZM144.292 143.164C144.292 139.515 146.632 136.706 149.906 136.706C153.179 136.706 155.425 139.515 155.425 143.164V143.259C155.425 146.908 153.085 149.717 149.811 149.717C146.538 149.717 144.292 146.908 144.292 143.259V143.164Z" fill="white"/>
<path d="M159.538 136.99H161.316V139.048C161.972 137.83 163.189 136.801 165.056 136.801C167.58 136.801 169.169 138.581 169.169 141.39V149.628H167.296V141.857C167.296 139.61 166.268 138.392 164.395 138.392C162.522 138.392 161.216 139.793 161.216 141.946V149.528H159.438L159.532 136.984L159.538 136.99Z" fill="white"/>
<path d="M173.382 136.706C173.755 136.706 173.944 136.517 173.944 136.238C173.944 135.96 173.755 135.771 173.382 135.771H172.632V136.706H173.382ZM172.071 135.304H173.382C173.755 135.304 174.038 135.399 174.316 135.582C174.505 135.771 174.6 135.955 174.6 136.238C174.6 136.706 174.316 136.989 173.944 137.084L174.694 138.208H174.038L173.288 137.179H172.632V138.208H172.071V135.304ZM175.717 136.8C175.717 135.399 174.594 134.275 173.193 134.275C171.793 134.275 170.67 135.399 170.67 136.8C170.67 138.202 171.793 139.326 173.193 139.326C174.594 139.326 175.717 138.202 175.717 136.8ZM170.387 136.8C170.387 135.209 171.698 133.991 173.193 133.991C174.783 133.991 176 135.209 176 136.8C176 138.391 174.688 139.609 173.193 139.609C171.698 139.609 170.387 138.391 170.387 136.8Z" fill="white"/>
</g>
<defs>
<clipPath id="clip0_1915_7226">
<rect width="136" height="70.4" fill="white" transform="translate(40 82.5996)"/>
</clipPath>
</defs>
</svg>
