<svg width="136" height="71" viewBox="0 0 136 71" fill="none" xmlns="http://www.w3.org/2000/svg">
<g clip-path="url(#clip0_375_12071)">
<path d="M5.99736 1.53542C5.34154 0.784476 3.46855 -0.528293 1.50664 1.0626C0.200551 2.18625 0.106068 3.30989 0.0115847 3.68814C0.0115847 4.06083 -0.177381 5.18448 1.03978 6.59181C2.25695 7.99358 13.8561 21.099 13.8561 21.099C13.8561 21.099 24.7995 33.3645 27.2283 35.8899C29.657 38.4153 34.9925 43.188 43.2237 43.4717C48.926 43.6608 48.926 43.5663 49.5818 43.5663H63.4264C63.7987 43.5663 67.0723 43.6608 70.5348 42.3481C73.9974 41.0353 77.4543 38.4153 79.7942 36.3572C82.134 34.2044 88.2143 27.8409 88.5866 27.3736C91.4878 24.3809 92.8884 23.2573 95.6006 23.63C98.4073 24.0972 102.242 24.7536 108.973 26.1554C109.162 26.25 124.407 29.5263 124.59 29.6209C124.779 29.6209 127.302 30.2773 128.703 27.8409C129.92 25.499 128.142 23.0682 126.647 22.7845C122.345 21.85 117.949 20.8209 113.647 19.8808C113.275 19.7862 97.9349 16.4153 94.3779 16.4153C93.2552 16.4153 90.6375 16.3208 87.6418 18.7572C84.4627 21.2826 81.656 24.5589 81.1892 24.9372C80.7223 25.4045 77.1653 29.2426 76.1371 30.1771C72.7691 33.3589 69.0287 36.4517 63.6987 36.4517H46.6751C45.9248 36.4517 41.1562 36.4517 38.5384 35.4227C35.6372 34.299 33.7698 32.7081 31.5245 30.1827C29.2847 27.7407 5.99736 1.53542 5.99736 1.53542Z" fill="white"/>
<path d="M8.5202 60.3218C8.42572 57.98 7.30304 56.0164 5.24664 56.0164C3.37921 56.0164 1.97309 57.7018 1.78412 60.3218H8.5202ZM0.105655 60.9726C0.105655 57.1345 2.35102 54.4199 5.24664 54.4199C8.42572 54.4199 10.2987 57.1345 10.2987 60.8781V61.629H1.8786C2.06757 64.4381 3.75159 65.9345 5.7135 65.9345C7.11407 65.9345 8.05335 65.3726 8.98706 64.5327L10.0153 65.6563C8.89258 66.78 7.58093 67.5309 5.7135 67.5309C2.62891 67.5309 0.100098 65.0055 0.100098 61.0728V60.9782L0.105655 60.9726Z" fill="white"/>
<path d="M14.228 54.7027H16.0065V57.5118C16.7568 55.7318 18.2519 54.5191 20.3083 54.6081V56.4827H20.2138C17.874 56.4827 16.0065 58.1682 16.0065 61.35V67.3409H14.228V54.7027Z" fill="white"/>
<path d="M31.9019 60.3221C31.9019 57.6076 30.0289 55.9221 28.1615 55.9221C26.1996 55.9221 24.61 57.513 24.61 60.3221V60.4167C24.61 63.1312 26.1996 64.8167 28.1615 64.8167C30.1234 64.8167 31.9019 63.1312 31.9019 60.3221ZM24.0431 68.093C25.2603 68.844 26.6609 69.3112 28.067 69.3112C30.4069 69.3112 31.9019 68.093 31.9019 65.5676V63.693C31.0571 65.0948 29.751 66.313 27.7891 66.313C25.2659 66.313 22.8315 64.1603 22.8315 60.4167V60.3221C22.8315 56.5785 25.2659 54.4258 27.7891 54.4258C29.751 54.4258 31.0627 55.5494 31.9019 56.8622V54.6149H33.6804V65.4731C33.6804 67.1585 33.2136 68.4657 32.2798 69.3112C31.3461 70.2458 29.94 70.713 28.1671 70.713C26.483 70.713 24.8935 70.2458 23.3984 69.4002L24.0543 68.0875L24.0431 68.093Z" fill="white"/>
<path d="M47.0526 60.8781C47.0526 58.069 45.3685 56.0108 43.2177 56.0108C41.0668 56.0108 39.4772 58.069 39.4772 60.8781V60.9726C39.4772 63.7817 41.1613 65.8399 43.3121 65.8399C45.463 65.8399 47.147 63.6872 47.147 60.9726L47.0526 60.8781ZM37.6987 60.8781C37.6987 57.229 40.0386 54.4199 43.3121 54.4199C46.5857 54.4199 48.8311 57.229 48.8311 60.8781V60.9726C48.8311 64.6217 46.4912 67.4308 43.2177 67.4308C39.9441 67.4308 37.6987 64.6217 37.6987 60.9726V60.8781Z" fill="white"/>
<path d="M52.9493 54.7036H54.6333V56.6672C55.2891 55.449 56.3173 54.4199 58.1848 54.4199C59.8688 54.4199 61.0859 55.3544 61.6473 56.6672C62.3976 55.449 63.6092 54.4199 65.4822 54.4199C67.9165 54.4199 69.506 56.1054 69.506 59.009V67.1527H67.7275V59.3817C67.7275 57.1345 66.6993 55.9163 65.0153 55.9163C63.4258 55.9163 62.0252 57.229 62.0252 59.4707V67.1471H60.2467V59.3762C60.2467 57.1289 59.2185 55.9107 57.5345 55.9107C55.8505 55.9107 54.5444 57.407 54.5444 59.4652V67.047H52.8604V54.6925H52.9548L52.9493 54.7036Z" fill="white"/>
<path d="M82.784 60.8781C82.784 58.069 81.1 56.0108 78.9491 56.0108C76.7982 56.0108 75.2087 58.069 75.2087 60.8781V60.9726C75.2087 63.7817 76.8927 65.8399 79.0436 65.8399C81.1945 65.8399 82.8785 63.6872 82.8785 60.9726V60.8781H82.784ZM73.4302 60.8781C73.4302 57.229 75.77 54.4199 79.0436 54.4199C82.3171 54.4199 84.5625 57.229 84.5625 60.8781V60.9726C84.5625 64.6217 82.2227 67.4308 78.9491 67.4308C75.6755 67.4308 73.4302 64.6217 73.4302 60.9726V60.8781Z" fill="white"/>
<path d="M89.142 64.3429V56.2938H87.647V54.7975H89.142V51.1484H90.9205V54.7975H94.1941V56.2938H90.9205V64.0647C90.9205 65.3775 91.6708 65.8448 92.699 65.8448C93.1659 65.8448 93.6328 65.7502 94.1941 65.4721V66.9684C93.6328 67.2465 92.9769 67.4357 92.3211 67.4357C90.5426 67.4357 89.142 66.5902 89.142 64.3484" fill="white"/>
<path d="M98.3069 67.2471H100.085V54.7035H98.3069V67.2471ZM98.2124 52.0835H100.174V50.0254H98.2124V52.0835Z" fill="white"/>
<path d="M113.646 60.8781C113.646 58.069 111.962 56.0108 109.811 56.0108C107.661 56.0108 106.071 58.069 106.071 60.8781V60.9726C106.071 63.7817 107.755 65.8399 109.906 65.8399C112.057 65.8399 113.741 63.6872 113.741 60.9726V60.8781H113.646ZM104.292 60.8781C104.292 57.229 106.632 54.4199 109.906 54.4199C113.179 54.4199 115.425 57.229 115.425 60.8781V60.9726C115.425 64.6217 113.085 67.4308 109.811 67.4308C106.538 67.4308 104.292 64.6217 104.292 60.9726V60.8781Z" fill="white"/>
<path d="M119.538 54.7028H121.316V56.761C121.972 55.5427 123.189 54.5137 125.056 54.5137C127.58 54.5137 129.169 56.2937 129.169 59.1028V67.341H127.296V59.5701C127.296 57.3228 126.268 56.1046 124.395 56.1046C122.522 56.1046 121.216 57.5063 121.216 59.6591V67.2409H119.438L119.532 54.6972L119.538 54.7028Z" fill="white"/>
<path d="M133.382 54.4196C133.755 54.4196 133.944 54.2305 133.944 53.9524C133.944 53.6742 133.755 53.4851 133.382 53.4851H132.632V54.4196H133.382ZM132.071 53.0178H133.382C133.755 53.0178 134.038 53.1124 134.316 53.296C134.505 53.4851 134.6 53.6687 134.6 53.9524C134.6 54.4196 134.316 54.7033 133.944 54.7979L134.694 55.9215H134.038L133.288 54.8924H132.632V55.9215H132.071V53.0178ZM135.717 54.5142C135.717 53.1124 134.594 51.9888 133.193 51.9888C131.793 51.9888 130.67 53.1124 130.67 54.5142C130.67 55.916 131.793 57.0396 133.193 57.0396C134.594 57.0396 135.717 55.916 135.717 54.5142ZM130.387 54.5142C130.387 52.9233 131.698 51.7051 133.193 51.7051C134.783 51.7051 136 52.9233 136 54.5142C136 56.1051 134.688 57.3233 133.193 57.3233C131.698 57.3233 130.387 56.1051 130.387 54.5142Z" fill="white"/>
</g>
<defs>
<clipPath id="clip0_375_12071">
<rect width="136" height="70.4" fill="white" transform="translate(0 0.3125)"/>
</clipPath>
</defs>
</svg>
