<svg width="14" height="15" viewBox="0 0 14 15" fill="none" xmlns="http://www.w3.org/2000/svg">
<path d="M9.93381 1.56544L10.0102 1.71801L10.5867 3.25099C10.632 3.37171 10.7272 3.46697 10.848 3.51226L12.328 4.06753C12.9775 4.31121 13.3266 5.00524 13.1535 5.6619L13.1118 5.79259L12.4233 7.31541C12.3699 7.4328 12.3699 7.56751 12.4233 7.6849L13.0772 9.12411C13.3642 9.75568 13.1202 10.4932 12.5335 10.8352L12.3809 10.9116L10.848 11.4881C10.7272 11.5333 10.632 11.6286 10.5867 11.7493L10.0314 13.2294C9.78774 13.8789 9.0937 14.2279 8.43705 14.0549L8.30636 14.0132L6.78354 13.3246C6.66615 13.2713 6.53143 13.2713 6.41404 13.3246L4.97484 13.9786C4.34327 14.2655 3.60571 14.0216 3.26377 13.4349L3.18735 13.2823L2.61089 11.7493C2.5656 11.6286 2.47034 11.5333 2.34962 11.4881L0.869549 10.9328C0.220046 10.6891 -0.128977 9.99507 0.0440967 9.33842L0.0857385 9.20773L0.774305 7.6849C0.827644 7.56751 0.827644 7.4328 0.774305 7.31541L0.120374 5.8762C-0.166592 5.24463 0.0773694 4.50708 0.664076 4.16513L0.816641 4.08871L2.34962 3.51226C2.47034 3.46697 2.5656 3.37171 2.61089 3.25099L3.16617 1.77092C3.40984 1.12141 4.10388 0.77239 4.76053 0.945464L4.89122 0.987106L6.41404 1.67567C6.53143 1.72901 6.66615 1.72901 6.78354 1.67567L8.22274 1.02174C8.85431 0.734775 9.59187 0.978737 9.93381 1.56544ZM8.76269 5.20607L5.57704 8.84681L4.41459 7.68436C4.24018 7.50995 3.9574 7.50995 3.78299 7.68436C3.60859 7.85877 3.60859 8.14154 3.78299 8.31595L5.28299 9.81595C5.46567 9.99863 5.76477 9.98867 5.93489 9.79425L9.43489 5.79425C9.59731 5.60862 9.5785 5.32648 9.39288 5.16405C9.20726 5.00163 8.92511 5.02044 8.76269 5.20607Z" fill="#4197B4"/>
</svg>
